<svg width="39" height="40" viewBox="0 0 39 40" fill="none" xmlns="http://www.w3.org/2000/svg">
<rect x="0.666748" width="38.3333" height="40" rx="12" fill="#2B3640"/>
<path d="M28.1667 19.1667V16.6667H27.3334V15H26.5001V14.1667H24.8334V13.3333H22.3334V14.1667H17.3334V13.3333H14.8334V14.1667H13.1667V15H12.3334V16.6667H11.5001V19.1667H10.6667V25H12.3334V25.8333H14.0001V26.6667H15.6667V25H14.8334V24.1667H16.5001V25H17.3334V25.8333H22.3334V25H23.1667V24.1667H24.8334V25H24.0001V26.6667H25.6667V25.8333H27.3334V25H29.0001V19.1667H28.1667ZM17.3334 22.5H15.6667V21.6667H14.8334V20H15.6667V19.1667H17.3334V20H18.1667V21.6667H17.3334V22.5ZM24.8334 21.6667H24.0001V22.5H22.3334V21.6667H21.5001V20H22.3334V19.1667H24.0001V20H24.8334V21.6667Z" fill="white"/>
</svg>

