<svg width="1234" height="622" viewBox="0 0 1234 622" fill="none" xmlns="http://www.w3.org/2000/svg">
<path d="M453.398 1L-9.78954 621M457.551 1L24.3274 621M461.703 1L55.8138 621M465.855 1L85.0456 621M470.008 1L112.332 621M474.16 1L137.928 621M478.312 1L162.049 621M482.464 1L184.874 621M486.617 1L206.558 621M490.769 1L227.231 621M494.921 1L247.007 621M499.074 1L265.982 621M503.226 1L284.243 621M507.378 1L301.864 621M511.53 1L318.91 621M515.683 1L335.441 621M519.835 1L351.508 621M523.987 1L367.157 621M528.14 1L382.43 621M532.292 1L397.365 621M536.444 1L411.996 621M540.596 1L426.354 621M544.749 1L440.468 621M548.901 1L454.365 621M553.053 1L468.068 621M557.206 1L481.6 621M561.358 1L494.983 621M565.51 1L508.238 621M569.662 1L521.382 621M573.815 1L534.435 621M577.967 1L547.414 621M582.119 1L560.336 621M586.272 1L573.218 621M590.424 1L586.075 621M594.576 1L598.925 621M598.728 1L611.782 621M602.881 1L624.664 621M607.033 1L637.586 621M611.185 1L650.565 621M615.338 1L663.618 621M619.49 1L676.762 621M623.642 1L690.017 621M627.794 1L703.4 621M631.947 1L716.932 621M636.099 1L730.635 621M640.251 1L744.532 621M644.404 1L758.646 621M648.556 1L773.004 621M652.708 1L787.635 621M656.86 1L802.57 621M661.013 1L817.843 621M665.165 1L833.492 621M669.317 1L849.559 621M673.47 1L866.09 621M677.622 1L883.136 621M681.774 1L900.757 621M685.926 1L919.018 621M690.079 1L937.993 621M694.231 1L957.769 621M698.383 1L978.442 621M702.536 1L1000.13 621M706.688 1L1022.95 621M710.84 1L1047.07 621M714.992 1L1072.67 621M719.145 1L1099.95 621M723.297 1L1129.19 621M727.449 1L1160.67 621M731.602 1L1194.79 621M449.245 1.00076H735.755M449.245 1.00161H735.755M449.244 1.00293H735.756M449.242 1.0052H735.758M449.239 1.0087H735.761M449.235 1.01419H735.765M449.228 1.02233H735.772M449.219 1.03415H735.781M449.205 1.0509H735.795M449.187 1.07436H735.813M449.161 1.10652H735.839M449.126 1.14995H735.874M449.08 1.20766H735.92M449.019 1.28344H735.981M448.94 1.38182H736.06M448.839 1.50812H736.161M448.711 1.66866H736.289M448.549 1.87093H736.451M448.347 2.12343H736.653M448.097 2.43619H736.903M447.789 2.82095H737.211M447.413 3.29075H737.587M446.956 3.86084H738.044M446.406 4.54842H738.594M445.746 5.37319H739.254M444.958 6.35698H740.042M444.024 7.52478H740.976M442.92 8.9042H742.08M441.621 10.5265H743.379M440.101 12.4261H744.899M438.327 14.6417H746.673M436.267 17.2156H748.733M433.882 20.1952H751.118M431.131 23.6321H753.869M427.969 27.5838H757.032M424.344 32.1125H760.656M420.202 37.2871H764.798M415.483 43.1825H769.517M410.122 49.8805H774.878M404.047 57.4704H780.953M397.181 66.0485H787.819M389.44 75.7203H795.56M380.732 86.5995H804.268M370.96 98.809H814.04M360.016 112.482H824.984M347.787 127.761H837.213M334.148 144.802H850.852M318.966 163.769H866.034M302.1 184.842H882.9M283.395 208.211H901.605M262.689 234.081H922.311M239.805 262.672H945.195M214.556 294.217H970.444M186.741 328.968H998.259M156.148 367.191H1028.85M122.548 409.17H1062.45M85.6987 455.209H1099.3M45.3431 505.628H1139.66M1.20701 560.771H1183.79M449.246 1L-47 621H1232L735.754 1H449.246Z" stroke="#4EBEFF" stroke-opacity="0.25"/>
</svg>

