<svg width="32" height="32" viewBox="0 0 32 32" fill="none" xmlns="http://www.w3.org/2000/svg">
<path d="M17.3166 24.7156C17.2922 24.7518 17.0406 24.7606 15.8544 24.7668C14.3184 24.775 13.6775 24.7553 13.5778 24.6978C13.3688 24.5768 13.2322 24.3103 13.18 23.9212C13.1469 23.6728 13.1388 23.6534 13.0641 23.6368C12.0059 23.4056 11.2825 23.1287 10.6588 22.7162C9.85157 22.1825 9.23813 21.2728 8.93219 20.1562C8.86438 19.9093 8.85938 19.8325 8.85938 19.0625C8.85907 18.1431 8.87782 18.0021 9.08375 17.3778C9.33157 16.6262 9.70844 16.014 10.2931 15.4134C10.6669 15.029 10.7453 14.9765 10.8897 15.0128C11.0134 15.0437 11.0172 15.1503 10.9038 15.41C10.7994 15.6493 10.7781 15.8525 10.8266 16.1406C10.8472 16.2625 10.8428 16.2709 10.6447 16.47C10.3634 16.7534 10.3588 16.79 10.575 17.045C10.6709 17.1581 10.7497 17.2765 10.7497 17.3081C10.7497 17.3815 10.6844 17.4393 10.4553 17.5678C10.3538 17.625 10.2656 17.6868 10.2594 17.705C10.2534 17.7231 10.3547 17.7846 10.4844 17.8418C10.7381 17.9534 10.8475 18.0559 10.8209 18.1578C10.8119 18.1925 10.7006 18.3156 10.5738 18.4312L10.3428 18.6418L10.3947 18.774C10.4519 18.9196 10.4681 18.9256 10.6447 18.8634C10.8697 18.784 11.0172 18.7718 11.0734 18.8284C11.1366 18.8912 11.1391 19.1084 11.0803 19.4375C11.0566 19.5715 11.05 19.6934 11.0647 19.7221C11.0906 19.7718 11.2481 19.8896 11.2625 19.8696C11.5225 19.5071 11.7134 19.3125 11.8091 19.3125C11.9222 19.3125 12.0663 19.5496 12.2794 20.0859C12.3356 20.2278 12.3944 20.3437 12.41 20.3437C12.4509 20.3437 12.7094 19.935 12.8116 19.7087C12.9472 19.4075 13.1306 18.8096 13.1113 18.7315C13.1016 18.6931 12.9547 18.4859 12.7853 18.2709C12.4097 17.7953 12.3331 17.675 12.3575 17.599C12.3806 17.5253 12.5466 17.4093 13.0041 17.1459C13.2041 17.0309 13.3841 16.9168 13.4041 16.8931C13.4241 16.869 13.4488 16.7968 13.4591 16.7328C13.4781 16.6162 13.4775 16.6156 12.9972 16.155L12.5166 15.6937L12.5628 15.5115L12.6091 15.3293L13.1847 15.0625C13.5016 14.9156 13.765 14.7818 13.7703 14.765C13.7756 14.7481 13.7016 14.6431 13.6053 14.5312C13.0559 13.8918 12.8894 13.6165 12.9659 13.4731C13.0081 13.395 13.2388 13.275 13.6559 13.1143C14.0128 12.9771 14.1463 12.8993 14.1906 12.8021C14.2194 12.7387 14.2013 12.694 14.055 12.4662C13.785 12.0453 13.4709 11.5137 13.4194 11.3906C13.3644 11.2587 13.3825 11.1728 13.4788 11.1106C13.5159 11.0862 13.8059 10.9878 14.1231 10.8915C14.4403 10.7953 14.7034 10.7128 14.7084 10.7078C14.7131 10.7031 14.605 10.3696 14.4681 9.96684C14.3313 9.56402 14.2188 9.20433 14.2188 9.16777C14.2181 9.02746 14.2763 9.01621 15.0641 9.00496L15.8063 8.99434L15.8391 8.86434C15.8569 8.79277 15.9081 8.55871 15.9528 8.34371C16.0672 7.79246 16.11 7.67277 16.2094 7.62777C16.2813 7.59496 16.3144 7.60152 16.4659 7.67902C16.6388 7.76715 17.4084 8.20934 17.5466 8.29965C17.6144 8.34434 17.6222 8.34121 17.6906 8.24371C17.7303 8.18683 17.8809 7.99027 18.0253 7.80652C18.2956 7.46215 18.3934 7.39465 18.5213 7.46402C18.5638 7.48715 19.0647 7.99215 19.2144 8.16309C19.265 8.2209 19.4641 8.37496 19.4881 8.37527C19.5031 8.37527 19.7278 8.28871 19.9878 8.18277C20.2478 8.07684 20.4803 7.99777 20.505 8.00715C20.5297 8.01684 20.6397 8.24746 20.7497 8.51996C20.875 8.83059 20.9806 9.04465 21.0325 9.09371C21.0778 9.13684 21.2175 9.22809 21.3431 9.29684L21.5716 9.42184L21.4497 9.44215C21.3825 9.45308 20.245 9.47277 18.9216 9.48527C17.5981 9.49809 16.4838 9.52027 16.445 9.53465C16.3884 9.55558 16.3747 9.58496 16.3747 9.68277C16.3747 9.75496 16.3944 9.82121 16.4231 9.84496C16.4578 9.87371 16.68 9.89184 17.1928 9.9084C17.7594 9.92652 17.9113 9.93059 17.9525 10.0003C17.9675 10.0259 17.9678 10.0603 17.9678 10.1071V10.1115C17.9694 10.404 18.1738 10.7284 18.4638 10.899C18.5913 10.974 18.6416 10.9843 18.8747 10.9843C19.1072 10.9843 19.1581 10.9737 19.2844 10.8996C19.5509 10.7431 19.6956 10.5315 19.7656 10.1959C19.7894 10.0834 19.8231 9.97652 19.8413 9.9584C19.8591 9.94059 19.9569 9.91996 20.0588 9.91246C20.2266 9.90027 20.2478 9.9059 20.2897 9.97309C20.3153 10.0137 20.3444 10.1134 20.3547 10.195C20.38 10.3943 20.4991 10.62 20.6516 10.7581C20.8613 10.9471 20.9547 10.9834 21.2341 10.9834C21.4441 10.9831 21.5094 10.9696 21.6431 10.8996C21.9041 10.7631 22.1256 10.4506 22.1756 10.1484C22.1866 10.084 22.2041 10.0315 22.2147 10.0318C22.2253 10.0321 22.3175 10.1825 22.4197 10.3659C22.5425 10.5865 22.6044 10.7318 22.6019 10.795C22.5975 10.9165 22.2609 12.0234 22.2 12.1171C22.1703 12.1631 22.1234 12.1875 22.0647 12.1875C21.9709 12.1875 21.9372 12.2325 21.9372 12.3581C21.9372 12.3859 21.9372 12.409 21.9284 12.4278C21.8881 12.5153 21.6613 12.5168 20.3831 12.5253L18.9322 12.5353L18.8869 12.6437C18.8619 12.7037 18.8259 12.8637 18.8066 13C18.7741 13.23 18.7778 13.2734 18.8588 13.6159C18.9575 14.0337 19.2691 15.1862 19.2888 15.2056C19.3038 15.2209 19.8931 15.1171 20.0791 15.0665C20.1484 15.0478 20.2959 14.9753 20.4072 14.9056C20.8216 14.6456 20.8297 14.6434 21.4463 14.6306C22.0384 14.6181 22.1559 14.6303 22.1559 14.7037C22.1559 14.7743 21.9528 14.9834 21.7719 15.0993L21.6097 15.2031L21.9153 15.219C22.1384 15.2303 22.2294 15.2475 22.2519 15.2815C22.3431 15.4187 22.3463 15.4384 22.2916 15.5312C22.2328 15.6309 22.1744 15.6634 21.8122 15.7975C21.6091 15.8728 21.5466 15.9159 21.3434 16.1218C21.2147 16.2528 21.0788 16.3853 21.0413 16.4168C21.0016 16.45 20.7197 16.5359 20.36 16.624C20.0225 16.7065 19.7406 16.78 19.7334 16.7868C19.7266 16.7937 19.7422 16.8903 19.7681 17.0012C19.9272 17.6837 20.0466 18.4065 20.0803 18.8906L20.1019 19.2031L20.3581 19.47C20.8241 19.9556 20.9872 20.4059 20.9606 21.1346C20.9438 21.5978 20.9166 21.7162 20.5775 22.8075C20.4634 23.174 20.3772 23.4921 20.3856 23.5143C20.3941 23.5365 20.5019 23.5775 20.625 23.6053C20.9153 23.6706 21.2566 23.8506 21.3756 24.0009C21.5659 24.2415 21.6478 24.5587 21.5609 24.7209C21.53 24.7787 21.4869 24.7812 20.5219 24.7787C19.9684 24.7771 19.1991 24.7659 18.8122 24.7534C18.0366 24.7284 17.9772 24.7143 17.8303 24.5218C17.6547 24.2912 17.6403 24.2193 17.6459 23.5937C17.6488 23.2759 17.66 22.9031 17.6713 22.7656L17.6916 22.5156L16.9628 22.5225L16.2341 22.5293L16.0706 23.0381C15.9806 23.3178 15.9069 23.5503 15.9066 23.5546C15.9063 23.559 15.9347 23.5625 15.9697 23.5625C16.1244 23.5625 16.5269 23.669 16.6978 23.7553C16.9069 23.8609 17.1572 24.1003 17.2513 24.284C17.3244 24.4275 17.3584 24.6534 17.3166 24.7156ZM15.6091 17.2481C15.765 17.285 15.9747 17.2653 16.4475 17.1693C16.7044 17.1175 16.8434 17.0728 16.9038 17.0237C16.9513 16.985 17.0997 16.8584 17.2334 16.7428C17.4606 16.5462 17.6503 16.424 18.1591 16.1462C18.2725 16.084 18.3806 16.015 18.3997 15.9918C18.4253 15.9612 18.4025 15.7818 18.3113 15.2956C18.2438 14.9353 18.1809 14.609 18.1716 14.5703L18.1547 14.5H16.5997L16.3544 14.7053C16.0584 14.9531 15.9897 14.9896 15.5394 15.1387C15.2209 15.244 15.1763 15.2684 15.0603 15.4C14.99 15.48 14.9481 15.5506 14.9672 15.5568C15.0181 15.5737 15.3659 15.5109 15.8181 15.4025L16.2147 15.3078L16.4669 15.0893L16.7194 14.8709L17.2644 14.8809C17.5734 14.8862 17.8219 14.904 17.8388 14.9218C17.855 14.939 17.8772 14.9965 17.8884 15.0496C17.9081 15.1428 17.8997 15.1518 17.6338 15.325L17.3591 15.5037L17.6603 15.4846L17.9616 15.4656L18.0119 15.6131C18.0588 15.7512 18.0584 15.765 18.0075 15.8228C17.9775 15.8568 17.8053 15.954 17.6247 16.0387C17.3316 16.1765 17.2697 16.2209 17.0434 16.4559L16.7903 16.719L16.1588 16.8593C15.3475 17.04 15.2497 17.065 15.2497 17.0928C15.2497 17.1231 15.4541 17.2115 15.6091 17.2481ZM16.2844 20.5812C16.305 20.6728 16.3338 20.7403 16.3488 20.7312C16.4119 20.6918 16.4997 20.4606 16.4997 20.3328C16.4997 19.9928 16.2847 19.5725 15.9913 19.339C15.715 19.1193 15.5244 19.0465 15.2341 19.049C15.0872 19.0506 14.9519 19.069 14.9059 19.094C14.8288 19.1356 14.83 19.1368 14.9997 19.1881C15.0941 19.2165 15.2278 19.2687 15.2966 19.3043C15.7369 19.5315 16.1769 20.1003 16.2844 20.5812Z" fill="#F5FF2D"/>
</svg>

