<svg xmlns="http://www.w3.org/2000/svg" width="1024" height="1024" viewBox="0 0 1024 1024">
<g>
<path d="M 554.14 790.90 C553.36,792.06 545.31,792.34 507.35,792.54 C458.20,792.80 437.69,792.17 434.50,790.33 C427.81,786.46 423.44,777.93 421.77,765.48 C420.71,757.53 420.45,756.91 418.06,756.38 C384.20,748.98 361.05,740.12 341.09,726.92 C315.26,709.84 295.63,680.73 285.84,645.00 C283.67,637.10 283.51,634.64 283.51,610.00 C283.50,580.58 284.10,576.07 290.69,556.09 C298.62,532.04 310.68,512.45 329.39,493.23 C341.35,480.93 343.86,479.25 348.48,480.41 C352.44,481.40 352.56,484.81 348.93,493.12 C345.59,500.78 344.91,507.28 346.46,516.50 C347.12,520.40 346.98,520.67 340.64,527.04 C331.64,536.11 331.49,537.28 338.41,545.44 C341.48,549.06 344.00,552.85 344.00,553.86 C344.00,556.21 341.91,558.06 334.58,562.17 C331.33,564.00 328.51,565.98 328.31,566.56 C328.12,567.14 331.36,569.11 335.51,570.94 C343.63,574.51 347.13,577.79 346.28,581.05 C345.99,582.16 342.43,586.10 338.37,589.80 L 330.98 596.54 L 332.64 600.77 C334.47,605.43 334.99,605.62 340.64,603.63 C347.84,601.09 352.56,600.70 354.36,602.51 C356.38,604.52 356.46,611.47 354.58,622.00 C353.82,626.29 353.61,630.19 354.08,631.11 C354.91,632.70 359.95,636.47 360.41,635.83 C368.73,624.23 374.84,618.00 377.90,618.00 C381.52,618.00 386.13,625.59 392.95,642.75 C394.75,647.29 396.63,651.00 397.13,651.00 C398.44,651.00 406.71,637.92 409.98,630.68 C414.32,621.04 420.19,601.91 419.57,599.41 C419.26,598.18 414.56,591.55 409.14,584.67 C397.12,569.45 394.67,565.60 395.45,563.17 C396.19,560.81 401.50,557.10 416.14,548.67 C422.54,544.99 428.30,541.34 428.94,540.58 C429.58,539.81 430.37,537.50 430.70,535.45 C431.31,531.72 431.29,531.70 415.92,516.96 L 400.54 502.20 L 402.02 496.37 L 403.50 490.54 L 421.92 482.00 C432.06,477.30 440.49,473.02 440.66,472.48 C440.83,471.94 438.46,468.58 435.38,465.00 C417.80,444.54 412.47,435.73 414.92,431.14 C416.27,428.64 423.65,424.80 437.00,419.66 C448.42,415.27 452.69,412.78 454.11,409.67 C455.03,407.64 454.45,406.21 449.77,398.92 C441.13,385.45 431.08,368.44 429.43,364.50 C427.67,360.28 428.25,357.53 431.33,355.54 C432.52,354.76 441.80,351.61 451.95,348.53 C462.10,345.45 470.52,342.81 470.68,342.65 C470.83,342.50 467.37,331.83 462.99,318.94 C458.61,306.05 455.01,294.54 455.01,293.37 C454.99,288.88 456.85,288.52 482.06,288.16 L 505.81 287.82 L 506.86 283.66 C507.43,281.37 509.07,273.88 510.50,267.00 C514.16,249.36 515.53,245.53 518.71,244.09 C521.01,243.04 522.07,243.25 526.92,245.73 C532.45,248.55 557.08,262.70 561.50,265.59 C563.67,267.02 563.92,266.92 566.11,263.80 C567.38,261.98 572.20,255.69 576.82,249.81 C585.47,238.79 588.60,236.63 592.69,238.85 C594.05,239.59 610.08,255.75 614.87,261.22 C616.49,263.07 622.86,268.00 623.63,268.01 C624.11,268.01 631.30,265.24 639.62,261.85 C647.94,258.46 655.38,255.93 656.17,256.23 C656.96,256.54 660.48,263.92 664.00,272.64 C668.01,282.58 671.39,289.43 673.05,291.00 C674.50,292.38 678.97,295.30 682.99,297.50 L 690.30 301.50 L 686.40 302.15 C684.25,302.50 647.85,303.13 605.50,303.53 C563.15,303.94 527.49,304.65 526.25,305.11 C524.44,305.78 524.00,306.72 524.00,309.85 C524.00,312.16 524.63,314.28 525.55,315.04 C526.66,315.96 533.77,316.54 550.18,317.07 C568.31,317.65 573.17,317.78 574.49,320.01 C574.97,320.83 574.98,321.93 574.98,323.43 L 574.98 323.57 C575.03,332.93 581.57,343.31 590.85,348.77 C594.93,351.17 596.54,351.50 604.00,351.50 C611.44,351.50 613.07,351.16 617.11,348.79 C625.64,343.78 630.27,337.01 632.51,326.27 C633.27,322.67 634.35,319.25 634.93,318.67 C635.50,318.10 638.63,317.44 641.89,317.20 C647.26,316.81 647.94,316.99 649.28,319.14 C650.10,320.44 651.03,323.63 651.36,326.24 C652.17,332.62 655.98,339.84 660.86,344.26 C667.57,350.31 670.56,351.47 679.50,351.47 C686.22,351.46 688.31,351.03 692.59,348.79 C700.94,344.42 708.03,334.42 709.63,324.75 C709.98,322.69 710.54,321.01 710.88,321.02 C711.22,321.03 714.17,325.84 717.44,331.71 C721.37,338.77 723.35,343.42 723.27,345.44 C723.13,349.33 712.36,384.75 710.41,387.75 C709.46,389.22 707.96,390.00 706.08,390.00 C703.08,390.00 702.00,391.44 702.00,395.46 L 702.00 395.46 C702.00,396.35 702.00,397.09 701.72,397.69 C700.43,400.49 693.17,400.54 652.27,400.81 L 605.84 401.13 L 604.39 404.60 C603.59,406.52 602.44,411.64 601.82,416.00 C600.78,423.36 600.90,424.75 603.49,435.71 C606.65,449.08 616.62,485.96 617.25,486.58 C617.73,487.07 636.59,483.75 642.54,482.13 C644.76,481.53 649.48,479.21 653.04,476.98 C666.30,468.66 666.56,468.59 686.29,468.18 C705.24,467.78 709.00,468.17 709.00,470.52 C709.00,472.78 702.50,479.47 696.71,483.18 L 691.52 486.50 L 701.30 487.01 C708.44,487.37 711.35,487.92 712.07,489.01 C714.99,493.40 715.09,494.03 713.34,497.00 C711.46,500.19 709.59,501.23 698.00,505.52 C691.50,507.93 689.50,509.31 683.00,515.90 C678.88,520.09 674.53,524.33 673.33,525.34 C672.06,526.40 663.04,529.15 651.53,531.97 C640.73,534.61 631.71,536.96 631.48,537.18 C631.26,537.40 631.76,540.49 632.59,544.04 C637.68,565.88 641.50,589.01 642.58,604.50 L 643.27 614.50 L 651.47 623.04 C666.38,638.58 671.60,652.99 670.75,676.31 C670.21,691.13 669.34,694.92 658.49,729.84 C654.84,741.57 652.08,751.75 652.35,752.46 C652.62,753.17 656.07,754.48 660.01,755.37 C669.30,757.46 680.22,763.22 684.03,768.03 C690.12,775.73 692.74,785.88 689.96,791.07 C688.97,792.92 687.59,793.00 656.71,792.92 C639.00,792.87 614.38,792.51 602.00,792.11 C577.18,791.31 575.28,790.86 570.58,784.70 C564.96,777.32 564.50,775.02 564.68,755.00 C564.77,744.83 565.13,732.90 565.49,728.50 L 566.14 720.50 L 542.82 720.72 L 519.50 720.94 L 514.27 737.22 C511.39,746.17 509.03,753.61 509.02,753.75 C509.01,753.89 509.92,754.00 511.04,754.00 C515.99,754.00 528.87,757.41 534.34,760.17 C541.03,763.55 549.04,771.21 552.05,777.09 C554.39,781.68 555.48,788.91 554.14,790.90 ZM 499.50 551.94 C504.49,553.12 511.20,552.49 526.33,549.42 C534.55,547.76 539.00,546.33 540.93,544.76 C542.45,543.52 547.20,539.47 551.48,535.77 C558.75,529.48 564.82,525.57 581.10,516.68 C584.73,514.69 588.19,512.48 588.80,511.74 C589.62,510.76 588.89,505.02 585.97,489.46 C583.81,477.93 581.80,467.49 581.50,466.25 L 580.96 464.00 L 531.20 464.00 L 523.35 470.57 C513.88,478.50 511.68,479.67 497.27,484.44 C487.08,487.81 485.65,488.59 481.94,492.80 C479.69,495.36 478.35,497.62 478.96,497.82 C480.59,498.36 491.72,496.35 506.19,492.88 L 518.88 489.85 L 526.95 482.86 L 535.03 475.87 L 552.47 476.19 C562.36,476.36 570.31,476.93 570.85,477.50 C571.37,478.05 572.08,479.89 572.44,481.59 C573.07,484.57 572.80,484.86 564.29,490.40 L 555.50 496.12 L 565.14 495.51 L 574.78 494.90 L 576.39 499.62 C577.89,504.04 577.88,504.48 576.25,506.33 C575.29,507.42 569.78,510.53 564.00,513.24 C554.62,517.65 552.64,519.07 545.40,526.59 L 537.30 535.01 L 517.09 539.50 C491.13,545.28 488.00,546.08 488.00,546.97 C488.00,547.94 494.54,550.77 499.50,551.94 ZM 521.11 658.60 C521.77,661.53 522.69,663.69 523.17,663.40 C525.19,662.14 528.00,654.74 528.00,650.65 C528.00,639.77 521.12,626.32 511.73,618.85 C502.89,611.82 496.79,609.49 487.50,609.57 C482.80,609.62 478.47,610.21 477.00,611.01 C474.53,612.34 474.57,612.38 480.00,614.02 C483.02,614.93 487.30,616.60 489.50,617.74 C503.59,625.01 517.67,643.21 521.11,658.60 Z" fill="rgb(2,2,2)"/>
<path d="M 0.00 512.00 L 0.00 0.00 L 512.00 0.00 L 1024.00 0.00 L 1024.00 512.00 L 1024.00 1024.00 L 512.00 1024.00 L 0.00 1024.00 L 0.00 512.00 ZM 554.14 790.90 C555.48,788.91 554.39,781.68 552.05,777.09 C549.04,771.21 541.03,763.55 534.34,760.17 C528.87,757.41 515.99,754.00 511.04,754.00 C509.92,754.00 509.01,753.89 509.02,753.75 C509.03,753.61 511.39,746.17 514.27,737.22 L 519.50 720.94 L 542.82 720.72 L 566.14 720.50 L 565.49 728.50 C565.13,732.90 564.77,744.83 564.68,755.00 C564.50,775.02 564.96,777.32 570.58,784.70 C575.28,790.86 577.18,791.31 602.00,792.11 C614.38,792.51 639.00,792.87 656.71,792.92 C687.59,793.00 688.97,792.92 689.96,791.07 C692.74,785.88 690.12,775.73 684.03,768.03 C680.22,763.22 669.30,757.46 660.01,755.37 C656.07,754.48 652.62,753.17 652.35,752.46 C652.08,751.75 654.84,741.57 658.49,729.84 C669.34,694.92 670.21,691.13 670.75,676.31 C671.60,652.99 666.38,638.58 651.47,623.04 L 643.27 614.50 L 642.58 604.50 C641.50,589.01 637.68,565.88 632.59,544.04 C631.76,540.49 631.26,537.40 631.48,537.18 C631.71,536.96 640.73,534.61 651.53,531.97 C663.04,529.15 672.06,526.40 673.33,525.34 C674.53,524.33 678.88,520.09 683.00,515.90 C689.50,509.31 691.50,507.93 698.00,505.52 C709.59,501.23 711.46,500.19 713.34,497.00 C715.09,494.03 714.99,493.40 712.07,489.01 C711.35,487.92 708.44,487.37 701.30,487.01 L 691.52 486.50 L 696.71 483.18 C702.50,479.47 709.00,472.78 709.00,470.52 C709.00,468.17 705.24,467.78 686.29,468.18 C666.56,468.59 666.30,468.66 653.04,476.98 C649.48,479.21 644.76,481.53 642.54,482.13 C636.59,483.75 617.73,487.07 617.25,486.58 C616.62,485.96 606.65,449.08 603.49,435.71 C600.90,424.75 600.78,423.36 601.82,416.00 C602.44,411.64 603.59,406.52 604.39,404.60 L 605.84 401.13 L 652.27 400.81 C702.01,400.48 702.00,400.48 702.00,395.46 C702.00,391.44 703.08,390.00 706.08,390.00 C707.96,390.00 709.46,389.22 710.41,387.75 C712.36,384.75 723.13,349.33 723.27,345.44 C723.35,343.42 721.37,338.77 717.44,331.71 C714.17,325.84 711.22,321.03 710.88,321.02 C710.54,321.01 709.98,322.69 709.63,324.75 C708.03,334.42 700.94,344.42 692.59,348.79 C688.31,351.03 686.22,351.46 679.50,351.47 C670.56,351.47 667.57,350.31 660.86,344.26 C655.98,339.84 652.17,332.62 651.36,326.24 C651.03,323.63 650.10,320.44 649.28,319.14 C647.94,316.99 647.26,316.81 641.89,317.20 C638.63,317.44 635.50,318.10 634.93,318.67 C634.35,319.25 633.27,322.67 632.51,326.27 C630.27,337.01 625.64,343.78 617.11,348.79 C613.07,351.16 611.44,351.50 604.00,351.50 C596.54,351.50 594.93,351.17 590.85,348.77 C581.57,343.31 575.03,332.93 574.98,323.57 C574.96,317.82 575.15,317.87 550.18,317.07 C533.77,316.54 526.66,315.96 525.55,315.04 C524.63,314.28 524.00,312.16 524.00,309.85 C524.00,306.72 524.44,305.78 526.25,305.11 C527.49,304.65 563.15,303.94 605.50,303.53 C647.85,303.13 684.25,302.50 686.40,302.15 L 690.30 301.50 L 682.99 297.50 C678.97,295.30 674.50,292.38 673.05,291.00 C671.39,289.43 668.01,282.58 664.00,272.64 C660.48,263.92 656.96,256.54 656.17,256.23 C655.38,255.93 647.94,258.46 639.62,261.85 C631.30,265.24 624.11,268.01 623.63,268.01 C622.86,268.00 616.49,263.07 614.87,261.22 C610.08,255.75 594.05,239.59 592.69,238.85 C588.60,236.63 585.47,238.79 576.82,249.81 C572.20,255.69 567.38,261.98 566.11,263.80 C563.92,266.92 563.67,267.02 561.50,265.59 C557.08,262.70 532.45,248.55 526.92,245.73 C522.07,243.25 521.01,243.04 518.71,244.09 C515.53,245.53 514.16,249.36 510.50,267.00 C509.07,273.88 507.43,281.37 506.86,283.66 L 505.81 287.82 L 482.06 288.16 C456.85,288.52 454.99,288.88 455.01,293.37 C455.01,294.54 458.61,306.05 462.99,318.94 C467.37,331.83 470.83,342.50 470.68,342.65 C470.52,342.81 462.10,345.45 451.95,348.53 C441.80,351.61 432.52,354.76 431.33,355.54 C428.25,357.53 427.67,360.28 429.43,364.50 C431.08,368.44 441.13,385.45 449.77,398.92 C454.45,406.21 455.03,407.64 454.11,409.67 C452.69,412.78 448.42,415.27 437.00,419.66 C423.65,424.80 416.27,428.64 414.92,431.14 C412.47,435.73 417.80,444.54 435.38,465.00 C438.46,468.58 440.83,471.94 440.66,472.48 C440.49,473.02 432.06,477.30 421.92,482.00 L 403.50 490.54 L 402.02 496.37 L 400.54 502.20 L 415.92 516.96 C431.29,531.70 431.31,531.72 430.70,535.45 C430.37,537.50 429.58,539.81 428.94,540.58 C428.30,541.34 422.54,544.99 416.14,548.67 C401.50,557.10 396.19,560.81 395.45,563.17 C394.67,565.60 397.12,569.45 409.14,584.67 C414.56,591.55 419.26,598.18 419.57,599.41 C420.19,601.91 414.32,621.04 409.98,630.68 C406.71,637.92 398.44,651.00 397.13,651.00 C396.63,651.00 394.75,647.29 392.95,642.75 C386.13,625.59 381.52,618.00 377.90,618.00 C374.84,618.00 368.73,624.23 360.41,635.83 C359.95,636.47 354.91,632.70 354.08,631.11 C353.61,630.19 353.82,626.29 354.58,622.00 C356.46,611.47 356.38,604.52 354.36,602.51 C352.56,600.70 347.84,601.09 340.64,603.63 C334.99,605.62 334.47,605.43 332.64,600.77 L 330.98 596.54 L 338.37 589.80 C342.43,586.10 345.99,582.16 346.28,581.05 C347.13,577.79 343.63,574.51 335.51,570.94 C331.36,569.11 328.12,567.14 328.31,566.56 C328.51,565.98 331.33,564.00 334.58,562.17 C341.91,558.06 344.00,556.21 344.00,553.86 C344.00,552.85 341.48,549.06 338.41,545.44 C331.49,537.28 331.64,536.11 340.64,527.04 C346.98,520.67 347.12,520.40 346.46,516.50 C344.91,507.28 345.59,500.78 348.93,493.12 C352.56,484.81 352.44,481.40 348.48,480.41 C343.86,479.25 341.35,480.93 329.39,493.23 C310.68,512.45 298.62,532.04 290.69,556.09 C284.10,576.07 283.50,580.58 283.51,610.00 C283.51,634.64 283.67,637.10 285.84,645.00 C295.63,680.73 315.26,709.84 341.09,726.92 C361.05,740.12 384.20,748.98 418.06,756.38 C420.45,756.91 420.71,757.53 421.77,765.48 C423.44,777.93 427.81,786.46 434.50,790.33 C437.69,792.17 458.20,792.80 507.35,792.54 C545.31,792.34 553.36,792.06 554.14,790.90 ZM 521.11 658.60 C517.67,643.21 503.59,625.01 489.50,617.74 C487.30,616.60 483.02,614.93 480.00,614.02 C474.57,612.38 474.53,612.34 477.00,611.01 C478.47,610.21 482.80,609.62 487.50,609.57 C496.79,609.49 502.89,611.82 511.73,618.85 C521.12,626.32 528.00,639.77 528.00,650.65 C528.00,654.74 525.19,662.14 523.17,663.40 C522.69,663.69 521.77,661.53 521.11,658.60 ZM 499.50 551.94 C494.54,550.77 488.00,547.94 488.00,546.97 C488.00,546.08 491.13,545.28 517.09,539.50 L 537.30 535.01 L 545.40 526.59 C552.64,519.07 554.62,517.65 564.00,513.24 C569.78,510.53 575.29,507.42 576.25,506.33 C577.88,504.48 577.89,504.04 576.39,499.62 L 574.78 494.90 L 565.14 495.51 L 555.50 496.12 L 564.29 490.40 C572.80,484.86 573.07,484.57 572.44,481.59 C572.08,479.89 571.37,478.05 570.85,477.50 C570.31,476.93 562.36,476.36 552.47,476.19 L 535.03 475.87 L 526.95 482.86 L 518.88 489.85 L 506.19 492.88 C491.72,496.35 480.59,498.36 478.96,497.82 C478.35,497.62 479.69,495.36 481.94,492.80 C485.65,488.59 487.08,487.81 497.27,484.44 C511.68,479.67 513.88,478.50 523.35,470.57 L 531.20 464.00 L 556.08 464.00 L 580.96 464.00 L 581.50 466.25 C581.80,467.49 583.81,477.93 585.97,489.46 C588.89,505.02 589.62,510.76 588.80,511.74 C588.19,512.48 584.73,514.69 581.10,516.68 C564.82,525.57 558.75,529.48 551.48,535.77 C547.20,539.47 542.45,543.52 540.93,544.76 C539.00,546.33 534.55,547.76 526.33,549.42 C511.20,552.49 504.49,553.12 499.50,551.94 Z" fill="rgb(254,254,254)"/>
</g>
</svg>