<svg width="41" height="40" viewBox="0 0 41 40" fill="none" xmlns="http://www.w3.org/2000/svg">
<rect x="0.666748" width="40" height="40" rx="12" fill="#2B3640"/>
<g clip-path="url(#clip0_19_29)">
<path d="M27.3334 28.3333H29.0001V11.6667H27.3334V13.3333H24.0001V15H25.6667V16.6667H27.3334V25H24.0001V26.6667H27.3334V28.3333ZM10.6667 21.6667H14.0001V20H10.6667V21.6667ZM17.3334 30H19.0001V28.3333H20.6667V26.6667H19.0001V23.3333H20.6667V21.6667H14.0001V23.3333H17.3334V30ZM14.0001 20H17.3334V18.3333H14.0001V20ZM20.6667 26.6667H22.3334V25H24.0001V23.3333H20.6667V26.6667ZM20.6667 21.6667H22.3334V20H20.6667V21.6667ZM17.3334 18.3333H20.6667V16.6667H17.3334V18.3333ZM22.3334 20H24.0001V18.3333H22.3334V20ZM20.6667 16.6667H24.0001V15H20.6667V16.6667ZM24.0001 18.3333H25.6667V16.6667H24.0001V18.3333Z" fill="white"/>
</g>
<defs>
<clipPath id="clip0_19_29">
<rect width="20" height="20" fill="white" transform="translate(10.6667 10)"/>
</clipPath>
</defs>
</svg>

