<svg width="41" height="40" viewBox="0 0 41 40" fill="none" xmlns="http://www.w3.org/2000/svg">
<rect x="0.666748" width="40" height="40" rx="12" fill="#2B3640"/>
<g clip-path="url(#clip0_19_24)">
<path d="M12.3334 15H14.0001V13.3333H17.3334V11.6667H10.6667V13.3333H12.3334V15ZM10.6667 30H12.3334V28.3333H10.6667V30ZM12.3334 28.3333H14.0001V26.6667H12.3334V28.3333ZM14.0001 26.6667H15.6667V25H14.0001V26.6667ZM15.6667 25H17.3334V23.3333H15.6667V25ZM20.6667 28.3333H22.3334V25H20.6667V28.3333ZM19.0001 25H20.6667V23.3333H19.0001V25ZM17.3334 23.3333H19.0001V20H17.3334V23.3333ZM15.6667 20H17.3334V18.3333H15.6667V20ZM22.3334 30H29.0001V28.3333H27.3334V26.6667H25.6667V28.3333H22.3334V30ZM14.0001 18.3333H15.6667V15H14.0001V18.3333ZM24.0001 26.6667H25.6667V23.3333H24.0001V26.6667ZM22.3334 23.3333H24.0001V21.6667H22.3334V23.3333ZM20.6667 21.6667H22.3334V18.3333H20.6667V21.6667ZM19.0001 18.3333H20.6667V16.6667H19.0001V18.3333ZM17.3334 16.6667H19.0001V13.3333H17.3334V16.6667ZM22.3334 18.3333H24.0001V16.6667H22.3334V18.3333ZM24.0001 16.6667H25.6667V15H24.0001V16.6667ZM25.6667 15H27.3334V13.3333H25.6667V15ZM27.3334 13.3333H29.0001V11.6667H27.3334V13.3333Z" fill="white"/>
</g>
<defs>
<clipPath id="clip0_19_24">
<rect width="20" height="20" fill="white" transform="translate(10.6667 10)"/>
</clipPath>
</defs>
</svg>

